<mxfile host="app.diagrams.net" modified="2023-05-26T11:21:06.380Z" agent="Mozilla/5.0 (Windows NT 10.0; Win64; x64) AppleWebKit/537.36 (KHTML, like Gecko) Chrome/113.0.0.0 Safari/537.36" etag="Cau8f7eXeeFeURX58s5b" version="21.3.2" type="github">
  <diagram name="Page-1" id="c37626ed-c26b-45fb-9056-f9ebc6bb27b6">
    <mxGraphModel dx="1434" dy="764" grid="1" gridSize="10" guides="1" tooltips="1" connect="1" arrows="1" fold="1" page="1" pageScale="1" pageWidth="1169" pageHeight="827" background="none" math="0" shadow="0">
      <root>
        <mxCell id="0" />
        <mxCell id="1" parent="0" />
        <mxCell id="8NDlUTmJP2dTjy302EjL-81" value="" style="ellipse;whiteSpace=wrap;html=1;hachureGap=4;fontFamily=Architects Daughter;fontSource=https%3A%2F%2Ffonts.googleapis.com%2Fcss%3Ffamily%3DArchitects%2BDaughter;fontSize=20;fillColor=#FFCE9F;opacity=70;strokeWidth=0;" parent="1" vertex="1">
          <mxGeometry x="831" y="549" width="160" height="150" as="geometry" />
        </mxCell>
        <mxCell id="8NDlUTmJP2dTjy302EjL-79" value="" style="ellipse;whiteSpace=wrap;html=1;hachureGap=4;fontFamily=Architects Daughter;fontSource=https%3A%2F%2Ffonts.googleapis.com%2Fcss%3Ffamily%3DArchitects%2BDaughter;fontSize=20;fillColor=#FFCE9F;opacity=70;strokeWidth=0;" parent="1" vertex="1">
          <mxGeometry x="658" y="550" width="160" height="150" as="geometry" />
        </mxCell>
        <mxCell id="8NDlUTmJP2dTjy302EjL-77" value="" style="ellipse;whiteSpace=wrap;html=1;hachureGap=4;fontFamily=Architects Daughter;fontSource=https%3A%2F%2Ffonts.googleapis.com%2Fcss%3Ffamily%3DArchitects%2BDaughter;fontSize=20;fillColor=#FFCE9F;opacity=70;strokeWidth=0;" parent="1" vertex="1">
          <mxGeometry x="485" y="550" width="160" height="150" as="geometry" />
        </mxCell>
        <mxCell id="8NDlUTmJP2dTjy302EjL-75" value="" style="ellipse;whiteSpace=wrap;html=1;hachureGap=4;fontFamily=Architects Daughter;fontSource=https%3A%2F%2Ffonts.googleapis.com%2Fcss%3Ffamily%3DArchitects%2BDaughter;fontSize=20;fillColor=#FFCE9F;opacity=70;strokeWidth=0;" parent="1" vertex="1">
          <mxGeometry x="232" y="550" width="160" height="150" as="geometry" />
        </mxCell>
        <mxCell id="8NDlUTmJP2dTjy302EjL-73" value="" style="rounded=1;whiteSpace=wrap;html=1;hachureGap=4;fontFamily=Architects Daughter;fontSource=https%3A%2F%2Ffonts.googleapis.com%2Fcss%3Ffamily%3DArchitects%2BDaughter;fontSize=20;glass=0;fillColor=#B9E0A5;strokeWidth=0;perimeterSpacing=0;opacity=70;" parent="1" vertex="1">
          <mxGeometry x="701" y="372" width="170" height="140" as="geometry" />
        </mxCell>
        <mxCell id="8NDlUTmJP2dTjy302EjL-71" value="" style="rounded=1;whiteSpace=wrap;html=1;hachureGap=4;fontFamily=Architects Daughter;fontSource=https%3A%2F%2Ffonts.googleapis.com%2Fcss%3Ffamily%3DArchitects%2BDaughter;fontSize=20;glass=0;fillColor=#B9E0A5;strokeWidth=0;perimeterSpacing=0;opacity=70;" parent="1" vertex="1">
          <mxGeometry x="452" y="372" width="170" height="140" as="geometry" />
        </mxCell>
        <mxCell id="8NDlUTmJP2dTjy302EjL-72" value="Leaf-2" style="text;html=1;strokeColor=none;fillColor=none;align=center;verticalAlign=middle;whiteSpace=wrap;rounded=0;fontSize=20;fontFamily=Helvetica;horizontal=1;" parent="1" vertex="1">
          <mxGeometry x="453" y="375" width="60" height="30" as="geometry" />
        </mxCell>
        <mxCell id="8NDlUTmJP2dTjy302EjL-70" value="" style="rounded=1;whiteSpace=wrap;html=1;hachureGap=4;fontFamily=Architects Daughter;fontSource=https%3A%2F%2Ffonts.googleapis.com%2Fcss%3Ffamily%3DArchitects%2BDaughter;fontSize=20;glass=0;fillColor=#E1D5E7;strokeWidth=0;opacity=70;" parent="1" vertex="1">
          <mxGeometry x="595.5" y="113" width="200" height="170" as="geometry" />
        </mxCell>
        <mxCell id="8NDlUTmJP2dTjy302EjL-65" value="" style="rounded=1;whiteSpace=wrap;html=1;hachureGap=4;fontFamily=Architects Daughter;fontSource=https%3A%2F%2Ffonts.googleapis.com%2Fcss%3Ffamily%3DArchitects%2BDaughter;fontSize=20;glass=0;fillColor=#B9E0A5;strokeWidth=0;perimeterSpacing=0;opacity=70;" parent="1" vertex="1">
          <mxGeometry x="202" y="370" width="170" height="140" as="geometry" />
        </mxCell>
        <mxCell id="8NDlUTmJP2dTjy302EjL-63" value="" style="rounded=1;whiteSpace=wrap;html=1;hachureGap=4;fontFamily=Architects Daughter;fontSource=https%3A%2F%2Ffonts.googleapis.com%2Fcss%3Ffamily%3DArchitects%2BDaughter;fontSize=20;glass=0;fillColor=#E1D5E7;strokeWidth=0;opacity=70;" parent="1" vertex="1">
          <mxGeometry x="360" y="113" width="200" height="170" as="geometry" />
        </mxCell>
        <mxCell id="8NDlUTmJP2dTjy302EjL-38" style="edgeStyle=none;rounded=0;hachureGap=4;orthogonalLoop=1;jettySize=auto;html=1;exitX=0.5;exitY=0;exitDx=0;exitDy=0;exitPerimeter=0;entryX=0.416;entryY=0.999;entryDx=0;entryDy=0;entryPerimeter=0;fontFamily=Architects Daughter;fontSource=https%3A%2F%2Ffonts.googleapis.com%2Fcss%3Ffamily%3DArchitects%2BDaughter;fontSize=16;strokeColor=#EA6B66;endArrow=none;endFill=0;strokeWidth=3;" parent="1" source="8NDlUTmJP2dTjy302EjL-2" target="8NDlUTmJP2dTjy302EjL-5" edge="1">
          <mxGeometry relative="1" as="geometry" />
        </mxCell>
        <mxCell id="8NDlUTmJP2dTjy302EjL-42" style="edgeStyle=none;rounded=0;hachureGap=4;orthogonalLoop=1;jettySize=auto;html=1;exitX=0.5;exitY=0;exitDx=0;exitDy=0;exitPerimeter=0;entryX=0.5;entryY=1;entryDx=0;entryDy=0;entryPerimeter=0;fontFamily=Architects Daughter;fontSource=https%3A%2F%2Ffonts.googleapis.com%2Fcss%3Ffamily%3DArchitects%2BDaughter;fontSize=16;endArrow=none;endFill=0;strokeWidth=3;strokeColor=#EA6B66;" parent="1" source="8NDlUTmJP2dTjy302EjL-2" target="8NDlUTmJP2dTjy302EjL-7" edge="1">
          <mxGeometry relative="1" as="geometry" />
        </mxCell>
        <mxCell id="8NDlUTmJP2dTjy302EjL-43" style="edgeStyle=none;rounded=0;hachureGap=4;orthogonalLoop=1;jettySize=auto;html=1;exitX=0.5;exitY=0;exitDx=0;exitDy=0;exitPerimeter=0;entryX=0.5;entryY=1;entryDx=0;entryDy=0;entryPerimeter=0;fontFamily=Architects Daughter;fontSource=https%3A%2F%2Ffonts.googleapis.com%2Fcss%3Ffamily%3DArchitects%2BDaughter;fontSize=16;endArrow=none;endFill=0;strokeWidth=3;strokeColor=#EA6B66;" parent="1" source="8NDlUTmJP2dTjy302EjL-10" target="8NDlUTmJP2dTjy302EjL-5" edge="1">
          <mxGeometry relative="1" as="geometry" />
        </mxCell>
        <mxCell id="8NDlUTmJP2dTjy302EjL-44" style="edgeStyle=none;rounded=0;hachureGap=4;orthogonalLoop=1;jettySize=auto;html=1;exitX=0.5;exitY=0;exitDx=0;exitDy=0;exitPerimeter=0;entryX=0.5;entryY=1;entryDx=0;entryDy=0;entryPerimeter=0;fontFamily=Architects Daughter;fontSource=https%3A%2F%2Ffonts.googleapis.com%2Fcss%3Ffamily%3DArchitects%2BDaughter;fontSize=16;endArrow=none;endFill=0;strokeColor=#EA6B66;strokeWidth=3;" parent="1" source="8NDlUTmJP2dTjy302EjL-10" target="8NDlUTmJP2dTjy302EjL-7" edge="1">
          <mxGeometry relative="1" as="geometry" />
        </mxCell>
        <mxCell id="8NDlUTmJP2dTjy302EjL-45" style="edgeStyle=none;rounded=0;hachureGap=4;orthogonalLoop=1;jettySize=auto;html=1;exitX=0.5;exitY=0;exitDx=0;exitDy=0;exitPerimeter=0;entryX=0.5;entryY=1;entryDx=0;entryDy=0;entryPerimeter=0;fontFamily=Architects Daughter;fontSource=https%3A%2F%2Ffonts.googleapis.com%2Fcss%3Ffamily%3DArchitects%2BDaughter;fontSize=16;strokeWidth=3;strokeColor=#EA6B66;endArrow=none;endFill=0;" parent="1" source="8NDlUTmJP2dTjy302EjL-11" target="8NDlUTmJP2dTjy302EjL-5" edge="1">
          <mxGeometry relative="1" as="geometry" />
        </mxCell>
        <mxCell id="8NDlUTmJP2dTjy302EjL-46" style="edgeStyle=none;rounded=0;hachureGap=4;orthogonalLoop=1;jettySize=auto;html=1;exitX=0.5;exitY=0;exitDx=0;exitDy=0;exitPerimeter=0;entryX=0.5;entryY=1;entryDx=0;entryDy=0;entryPerimeter=0;fontFamily=Architects Daughter;fontSource=https%3A%2F%2Ffonts.googleapis.com%2Fcss%3Ffamily%3DArchitects%2BDaughter;fontSize=16;endArrow=none;endFill=0;strokeWidth=3;strokeColor=#EA6B66;" parent="1" source="8NDlUTmJP2dTjy302EjL-11" target="8NDlUTmJP2dTjy302EjL-7" edge="1">
          <mxGeometry relative="1" as="geometry" />
        </mxCell>
        <mxCell id="8NDlUTmJP2dTjy302EjL-5" value="" style="shape=mxgraph.cisco.misc.route_switch_processor;html=1;dashed=0;fillColor=#036897;strokeColor=#ffffff;strokeWidth=2;verticalLabelPosition=bottom;verticalAlign=top;rounded=0;shadow=0;comic=0;fontFamily=Verdana;fontSize=12;" parent="1" vertex="1">
          <mxGeometry x="410" y="150" width="91" height="116" as="geometry" />
        </mxCell>
        <mxCell id="8NDlUTmJP2dTjy302EjL-7" value="" style="shape=mxgraph.cisco.misc.route_switch_processor;html=1;dashed=0;fillColor=#036897;strokeColor=#ffffff;strokeWidth=2;verticalLabelPosition=bottom;verticalAlign=top;rounded=0;shadow=0;comic=0;fontFamily=Verdana;fontSize=12;" parent="1" vertex="1">
          <mxGeometry x="650" y="150" width="91" height="116" as="geometry" />
        </mxCell>
        <mxCell id="8NDlUTmJP2dTjy302EjL-54" style="edgeStyle=none;rounded=0;hachureGap=4;orthogonalLoop=1;jettySize=auto;html=1;exitX=0.5;exitY=1;exitDx=0;exitDy=0;exitPerimeter=0;fontFamily=Architects Daughter;fontSource=https%3A%2F%2Ffonts.googleapis.com%2Fcss%3Ffamily%3DArchitects%2BDaughter;fontSize=16;strokeWidth=3;endArrow=none;endFill=0;strokeColor=#A680B8;" parent="1" source="8NDlUTmJP2dTjy302EjL-2" target="8NDlUTmJP2dTjy302EjL-50" edge="1">
          <mxGeometry relative="1" as="geometry" />
        </mxCell>
        <mxCell id="8NDlUTmJP2dTjy302EjL-2" value="" style="shape=mxgraph.cisco.switches.layer_3_switch;sketch=0;html=1;pointerEvents=1;dashed=0;fillColor=#036897;strokeColor=#ffffff;strokeWidth=2;verticalLabelPosition=bottom;verticalAlign=top;align=center;outlineConnect=0;hachureGap=4;jiggle=2;curveFitting=1;fontFamily=Architects Daughter;fontSource=https%3A%2F%2Ffonts.googleapis.com%2Fcss%3Ffamily%3DArchitects%2BDaughter;fontSize=20;" parent="1" vertex="1">
          <mxGeometry x="270" y="402" width="90" height="90" as="geometry" />
        </mxCell>
        <mxCell id="8NDlUTmJP2dTjy302EjL-56" style="edgeStyle=none;rounded=0;hachureGap=4;orthogonalLoop=1;jettySize=auto;html=1;exitX=0.5;exitY=1;exitDx=0;exitDy=0;exitPerimeter=0;entryX=0.5;entryY=0;entryDx=0;entryDy=0;entryPerimeter=0;fontFamily=Architects Daughter;fontSource=https%3A%2F%2Ffonts.googleapis.com%2Fcss%3Ffamily%3DArchitects%2BDaughter;fontSize=16;endArrow=none;endFill=0;strokeColor=#A680B8;strokeWidth=3;" parent="1" source="8NDlUTmJP2dTjy302EjL-10" target="8NDlUTmJP2dTjy302EjL-51" edge="1">
          <mxGeometry relative="1" as="geometry" />
        </mxCell>
        <mxCell id="8NDlUTmJP2dTjy302EjL-10" value="" style="shape=mxgraph.cisco.switches.layer_3_switch;sketch=0;html=1;pointerEvents=1;dashed=0;fillColor=#036897;strokeColor=#ffffff;strokeWidth=2;verticalLabelPosition=bottom;verticalAlign=top;align=center;outlineConnect=0;hachureGap=4;jiggle=2;curveFitting=1;fontFamily=Architects Daughter;fontSource=https%3A%2F%2Ffonts.googleapis.com%2Fcss%3Ffamily%3DArchitects%2BDaughter;fontSize=20;" parent="1" vertex="1">
          <mxGeometry x="520" y="402" width="90" height="90" as="geometry" />
        </mxCell>
        <mxCell id="8NDlUTmJP2dTjy302EjL-11" value="" style="shape=mxgraph.cisco.switches.layer_3_switch;sketch=0;html=1;pointerEvents=1;dashed=0;fillColor=#036897;strokeColor=#ffffff;strokeWidth=2;verticalLabelPosition=bottom;verticalAlign=top;align=center;outlineConnect=0;hachureGap=4;jiggle=2;curveFitting=1;fontFamily=Architects Daughter;fontSource=https%3A%2F%2Ffonts.googleapis.com%2Fcss%3Ffamily%3DArchitects%2BDaughter;fontSize=20;" parent="1" vertex="1">
          <mxGeometry x="770" y="402" width="90" height="90" as="geometry" />
        </mxCell>
        <mxCell id="8NDlUTmJP2dTjy302EjL-50" value="" style="shape=mxgraph.cisco.computers_and_peripherals.pc;sketch=0;html=1;pointerEvents=1;dashed=0;fillColor=#036897;strokeColor=#ffffff;strokeWidth=2;verticalLabelPosition=bottom;verticalAlign=top;align=center;outlineConnect=0;hachureGap=4;jiggle=2;curveFitting=1;fontFamily=Architects Daughter;fontSource=https%3A%2F%2Ffonts.googleapis.com%2Fcss%3Ffamily%3DArchitects%2BDaughter;fontSize=20;" parent="1" vertex="1">
          <mxGeometry x="270" y="577" width="90" height="90" as="geometry" />
        </mxCell>
        <mxCell id="8NDlUTmJP2dTjy302EjL-51" value="" style="shape=mxgraph.cisco.computers_and_peripherals.pc;sketch=0;html=1;pointerEvents=1;dashed=0;fillColor=#036897;strokeColor=#ffffff;strokeWidth=2;verticalLabelPosition=bottom;verticalAlign=top;align=center;outlineConnect=0;hachureGap=4;jiggle=2;curveFitting=1;fontFamily=Architects Daughter;fontSource=https%3A%2F%2Ffonts.googleapis.com%2Fcss%3Ffamily%3DArchitects%2BDaughter;fontSize=20;" parent="1" vertex="1">
          <mxGeometry x="520" y="577" width="90" height="90" as="geometry" />
        </mxCell>
        <mxCell id="8NDlUTmJP2dTjy302EjL-60" style="edgeStyle=none;rounded=0;hachureGap=4;orthogonalLoop=1;jettySize=auto;html=1;exitX=0.5;exitY=0;exitDx=0;exitDy=0;exitPerimeter=0;entryX=0.5;entryY=1;entryDx=0;entryDy=0;entryPerimeter=0;fontFamily=Architects Daughter;fontSource=https%3A%2F%2Ffonts.googleapis.com%2Fcss%3Ffamily%3DArchitects%2BDaughter;fontSize=16;endArrow=none;endFill=0;strokeWidth=3;strokeColor=#A680B8;" parent="1" source="8NDlUTmJP2dTjy302EjL-52" target="8NDlUTmJP2dTjy302EjL-11" edge="1">
          <mxGeometry relative="1" as="geometry" />
        </mxCell>
        <mxCell id="8NDlUTmJP2dTjy302EjL-52" value="" style="shape=mxgraph.cisco.computers_and_peripherals.pc;sketch=0;html=1;pointerEvents=1;dashed=0;fillColor=#036897;strokeColor=#ffffff;strokeWidth=2;verticalLabelPosition=bottom;verticalAlign=top;align=center;outlineConnect=0;hachureGap=4;jiggle=2;curveFitting=1;fontFamily=Architects Daughter;fontSource=https%3A%2F%2Ffonts.googleapis.com%2Fcss%3Ffamily%3DArchitects%2BDaughter;fontSize=20;" parent="1" vertex="1">
          <mxGeometry x="691" y="577" width="90" height="90" as="geometry" />
        </mxCell>
        <mxCell id="8NDlUTmJP2dTjy302EjL-59" style="edgeStyle=none;rounded=0;hachureGap=4;orthogonalLoop=1;jettySize=auto;html=1;exitX=0.5;exitY=0;exitDx=0;exitDy=0;exitPerimeter=0;entryX=0.5;entryY=1;entryDx=0;entryDy=0;entryPerimeter=0;fontFamily=Architects Daughter;fontSource=https%3A%2F%2Ffonts.googleapis.com%2Fcss%3Ffamily%3DArchitects%2BDaughter;fontSize=16;endArrow=none;endFill=0;strokeWidth=3;strokeColor=#A680B8;" parent="1" source="8NDlUTmJP2dTjy302EjL-53" target="8NDlUTmJP2dTjy302EjL-11" edge="1">
          <mxGeometry relative="1" as="geometry" />
        </mxCell>
        <mxCell id="8NDlUTmJP2dTjy302EjL-53" value="" style="shape=mxgraph.cisco.computers_and_peripherals.pc;sketch=0;html=1;pointerEvents=1;dashed=0;fillColor=#036897;strokeColor=#ffffff;strokeWidth=2;verticalLabelPosition=bottom;verticalAlign=top;align=center;outlineConnect=0;hachureGap=4;jiggle=2;curveFitting=1;fontFamily=Architects Daughter;fontSource=https%3A%2F%2Ffonts.googleapis.com%2Fcss%3Ffamily%3DArchitects%2BDaughter;fontSize=20;" parent="1" vertex="1">
          <mxGeometry x="866" y="576" width="90" height="90" as="geometry" />
        </mxCell>
        <mxCell id="8NDlUTmJP2dTjy302EjL-67" value="Spine-1" style="text;html=1;strokeColor=none;fillColor=none;align=center;verticalAlign=middle;whiteSpace=wrap;rounded=0;fontSize=20;fontFamily=Helvetica;horizontal=1;" parent="1" vertex="1">
          <mxGeometry x="425.5" y="116" width="74.5" height="30" as="geometry" />
        </mxCell>
        <mxCell id="8NDlUTmJP2dTjy302EjL-68" value="Leaf-1" style="text;html=1;strokeColor=none;fillColor=none;align=center;verticalAlign=middle;whiteSpace=wrap;rounded=0;fontSize=20;fontFamily=Helvetica;horizontal=1;" parent="1" vertex="1">
          <mxGeometry x="203" y="373" width="60" height="30" as="geometry" />
        </mxCell>
        <mxCell id="8NDlUTmJP2dTjy302EjL-69" value="Spine-2" style="text;html=1;strokeColor=none;fillColor=none;align=center;verticalAlign=middle;whiteSpace=wrap;rounded=0;fontSize=20;fontFamily=Helvetica;horizontal=1;" parent="1" vertex="1">
          <mxGeometry x="661" y="118" width="79" height="30" as="geometry" />
        </mxCell>
        <mxCell id="8NDlUTmJP2dTjy302EjL-74" value="Leaf-3" style="text;html=1;strokeColor=none;fillColor=none;align=center;verticalAlign=middle;whiteSpace=wrap;rounded=0;fontSize=20;fontFamily=Helvetica;horizontal=1;" parent="1" vertex="1">
          <mxGeometry x="702" y="376" width="60" height="30" as="geometry" />
        </mxCell>
        <mxCell id="8NDlUTmJP2dTjy302EjL-76" value="Client-1" style="text;html=1;strokeColor=none;fillColor=none;align=center;verticalAlign=middle;whiteSpace=wrap;rounded=0;fontSize=20;fontFamily=Helvetica;horizontal=1;" parent="1" vertex="1">
          <mxGeometry x="273" y="667" width="75" height="30" as="geometry" />
        </mxCell>
        <mxCell id="8NDlUTmJP2dTjy302EjL-78" value="Client-2" style="text;html=1;strokeColor=none;fillColor=none;align=center;verticalAlign=middle;whiteSpace=wrap;rounded=0;fontSize=20;fontFamily=Helvetica;horizontal=1;" parent="1" vertex="1">
          <mxGeometry x="524" y="667" width="75" height="30" as="geometry" />
        </mxCell>
        <mxCell id="8NDlUTmJP2dTjy302EjL-80" value="Client-3" style="text;html=1;strokeColor=none;fillColor=none;align=center;verticalAlign=middle;whiteSpace=wrap;rounded=0;fontSize=20;fontFamily=Helvetica;horizontal=1;" parent="1" vertex="1">
          <mxGeometry x="697" y="664" width="75" height="30" as="geometry" />
        </mxCell>
        <mxCell id="8NDlUTmJP2dTjy302EjL-82" value="Client-4" style="text;html=1;strokeColor=none;fillColor=none;align=center;verticalAlign=middle;whiteSpace=wrap;rounded=0;fontSize=20;fontFamily=Helvetica;horizontal=1;" parent="1" vertex="1">
          <mxGeometry x="870" y="663" width="75" height="30" as="geometry" />
        </mxCell>
      </root>
    </mxGraphModel>
  </diagram>
</mxfile>
